<?xml version="1.0" encoding="UTF-8"?>
<!-- Generator: Adobe Illustrator 23.0.2, SVG Export Plug-In . SVG Version: 6.00 Build 0)  -->
<svg version="1.1" id="Objects" xmlns="http://www.w3.org/2000/svg" xmlns:xlink="http://www.w3.org/1999/xlink" x="0px" y="0px" viewBox="0 0 373.2 89.3" style="enable-background:new 0 0 373.2 89.3;" xml:space="preserve">
<style type="text/css">
	.st0{fill:#FFFFFF;}
</style>
<g>
	<path class="st0" d="M36.1,26.5H16c-1.4,0-2.4,0.1-3.2,0.2c-0.7,0.1-1.4,0.7-1.9,1.6c0.2,1.2,0.6,1.8,1.4,2   c0.8,0.1,1.9,0.2,3.5,0.2h9.8c3.9,0.2,6.7,1.4,8.3,3.4c1.6,2.1,2.2,4.9,1.8,8.6c-0.6,3.7-1.9,6.4-3.9,8.2c-2,1.8-5.3,2.7-9.9,2.7H0   l0.9-9.3h20.9c1.8,0,3.2-0.1,4.1-0.2c0.9-0.1,1.6-0.8,1.9-2.1c-0.1-1-0.6-1.6-1.4-1.8c-0.8-0.2-2.2-0.3-4.2-0.3h-9.5   c-4.2,0-7.1-1-8.9-3.1c-1.7-2-2.4-4.9-2.1-8.5c0.7-3.8,2-6.5,4.1-8.3c2.1-1.7,5.3-2.7,9.8-2.9H37L36.1,26.5z"/>
	<path class="st0" d="M70.4,16.9l-1,10.3l-18.6,0l-1.3,12.3c0,2.2,1.1,3.4,3.3,3.6l22.1,0l-1,10.2H49c-7.9-0.4-11.4-4.9-10.4-13.6   l1.3-12.6l-3,0.1l1-10.2H70.4z"/>
	<path class="st0" d="M111.3,53.3H85.8c-7.3-0.4-10.4-6.5-9.3-18.1c1.1-11.7,5.7-17.7,13.6-18.1H115l-0.9,8.8l-22.1,0   c-1.9-0.1-3,0.4-3.3,1.4l-0.9,3.1l25.9,0l-0.9,8.7L87.1,39l0,2c0.1,1.7,0.7,2.7,1.9,2.8l23.3,0L111.3,53.3z"/>
	<path class="st0" d="M116.8,17H142c7.6,1.3,11.2,5.4,10.8,12.3c-0.1,5.1-2.1,9.1-6.1,12.1l5.1,12h-12.1L134.8,42h-9.6l-1.1,11.3   l-10.9,0L116.8,17z M126.3,32.4l13.4,0c2,0,3.2-1,3.5-2.9c0.3-1.9-0.6-3.1-2.8-3.4h-13.5L126.3,32.4z"/>
	<path class="st0" d="M156.3,17h10.6l-3.6,36.3h-10.8L156.3,17z"/>
	<path class="st0" d="M179.7,16.9l-2.3,22.6c0,2.2,1.1,3.4,3.3,3.6l22.2,0l-1,10.2h-25.1c-7.9-0.4-11.4-5-10.5-13.7l2.3-22.9H179.7z   "/>
	<path class="st0" d="M207.4,17H218l-3.6,36.3h-10.8L207.4,17z"/>
	<path class="st0" d="M253.6,29.7L236.5,43h18.9l-1,10.4h-31.5c-3.7-0.4-5.8-2.1-6.3-5.2c-0.2-3.1,1.1-5.7,3.9-7.7L238,27.2h-18.7   l1-10.2h31.4c4.5,0.2,6.4,2.3,5.8,6.1C257.3,26,255.9,28.1,253.6,29.7z"/>
	<path class="st0" d="M292.3,53.3h-25.6c-7.3-0.4-10.4-6.5-9.3-18.1c1.1-11.7,5.7-17.7,13.6-18.1h24.9l-0.9,8.8l-22.1,0   c-1.9-0.1-3,0.4-3.3,1.4l-0.9,3.1l25.9,0l-0.9,8.7L268,39l0,2c0.1,1.7,0.7,2.7,1.9,2.8l23.3,0L292.3,53.3z"/>
</g>
<g>
	<path class="st0" d="M373,1.7l-30.8,43c6.6,9,13.2,18.3,19.7,27.6h-20.8l-9.3-13.1l-21.3,29.8c-0.1,0.2-0.8,0.3-1,0.3h-17.9   c-1.1,0-1.6-0.9-0.9-1.7l30.6-43c-6.6-9-13.1-18.3-19.6-27.6h20.8l9.4,13.1L353,0.3c0.1-0.2,0.8-0.3,1-0.3h17.9   C373.1,0,373.5,0.9,373,1.7z"/>
</g>
</svg>